<svg width="226" height="48" viewBox="0 0 226 48" fill="none" xmlns="http://www.w3.org/2000/svg">
<path d="M29.003 35.48L30.083 34.7C31.443 33.9 32.403 33.5 32.963 33.5C34.203 33.5 35.543 34.62 36.983 36.86C37.863 38.26 38.3031 39.38 38.3031 40.22C38.3031 41.06 38.0231 41.76 37.4631 42.32C36.943 42.88 36.323 43.38 35.603 43.82C34.883 44.26 34.183 44.68 33.503 45.08C32.863 45.48 31.523 46 29.483 46.64C27.443 47.28 25.463 47.6 23.543 47.6C21.663 47.6 19.743 47.36 17.783 46.88C15.863 46.36 13.863 45.52 11.783 44.36C9.74305 43.16 7.90305 41.72 6.26305 40.04C4.62305 38.32 3.26305 36.14 2.18305 33.5C1.14305 30.82 0.623047 27.92 0.623047 24.8C0.623047 21.68 1.14305 18.86 2.18305 16.34C3.22305 13.78 4.54305 11.68 6.14305 10.04C7.78305 8.36 9.64305 6.96 11.723 5.84C15.643 3.68 19.583 2.6 23.543 2.6C25.423 2.6 27.323 2.9 29.243 3.5C31.203 4.06 32.683 4.64 33.683 5.24L35.123 6.08C35.843 6.52 36.403 6.88 36.803 7.16C37.843 8 38.363 8.96 38.363 10.04C38.363 11.08 37.943 12.18 37.103 13.34C35.543 15.5 34.143 16.58 32.903 16.58C32.183 16.58 31.163 16.14 29.843 15.26C28.163 13.9 25.923 13.22 23.123 13.22C20.523 13.22 17.963 14.12 15.443 15.92C14.243 16.8 13.243 18.04 12.443 19.64C11.643 21.24 11.243 23.06 11.243 25.1C11.243 27.1 11.643 28.9 12.443 30.5C13.243 32.1 14.263 33.36 15.503 34.28C17.943 36.04 20.483 36.92 23.123 36.92C24.363 36.92 25.523 36.76 26.603 36.44C27.723 36.12 28.523 35.8 29.003 35.48ZM63.7257 15.74C64.4857 15.98 65.1057 16.4 65.5857 17C66.1057 17.56 66.3657 18.48 66.3657 19.76C66.3657 21.04 65.9857 22.44 65.2257 23.96C64.4657 25.48 63.3657 26.24 61.9257 26.24C61.2057 26.24 60.5057 26.08 59.8257 25.76C59.1857 25.44 58.3257 25.28 57.2457 25.28C56.1657 25.28 55.1457 25.66 54.1857 26.42C53.2657 27.18 52.8057 28.1 52.8057 29.18V41.78C52.8057 42.7 52.7657 43.4 52.6857 43.88C52.6457 44.32 52.4657 44.84 52.1457 45.44C51.5457 46.48 49.9857 47 47.4657 47C45.5457 47 44.1657 46.66 43.3257 45.98C42.6857 45.42 42.3257 44.56 42.2457 43.4C42.2457 43 42.2457 42.42 42.2457 41.66V20.6C42.2457 19.68 42.2657 19 42.3057 18.56C42.3857 18.08 42.5657 17.56 42.8457 17C43.4057 15.92 44.9657 15.38 47.5257 15.38C49.9257 15.38 51.4257 15.84 52.0257 16.76C52.4657 17.4 52.6857 18.06 52.6857 18.74C52.8857 18.46 53.1657 18.12 53.5257 17.72C53.9257 17.32 54.7457 16.78 55.9857 16.1C57.2257 15.42 58.3057 15.08 59.2257 15.08C60.1857 15.08 60.9857 15.14 61.6257 15.26C62.2657 15.34 62.9657 15.5 63.7257 15.74ZM83.7076 46.88C79.6676 46.88 76.3076 45.36 73.6276 42.32C70.9876 39.24 69.6676 35.5 69.6676 31.1V20.6C69.6676 19.64 69.6876 18.94 69.7276 18.5C69.8076 18.06 69.9876 17.54 70.2676 16.94C70.8276 15.86 72.3876 15.32 74.9476 15.32C77.7476 15.32 79.3876 16.08 79.8676 17.6C80.1076 18.24 80.2276 19.26 80.2276 20.66V31.16C80.2276 32.8 80.6876 34.08 81.6076 35C82.5676 35.92 83.8276 36.38 85.3876 36.38C86.9876 36.38 88.2676 35.9 89.2276 34.94C90.2276 33.98 90.7276 32.72 90.7276 31.16V20.54C90.7276 19.62 90.7476 18.94 90.7876 18.5C90.8676 18.02 91.0676 17.48 91.3876 16.88C91.9076 15.84 93.4476 15.32 96.0076 15.32C98.5276 15.32 100.068 15.86 100.628 16.94C100.908 17.54 101.068 18.08 101.108 18.56C101.188 19 101.228 19.68 101.228 20.6V41.84C101.228 42.72 101.188 43.4 101.108 43.88C101.068 44.32 100.888 44.82 100.568 45.38C99.9676 46.42 98.4276 46.94 95.9476 46.94C93.5076 46.94 92.0076 46.46 91.4476 45.5C91.0476 44.82 90.8476 44 90.8476 43.04C90.6876 43.32 90.3276 43.72 89.7676 44.24C89.2076 44.76 88.6676 45.2 88.1476 45.56C86.7876 46.44 85.3076 46.88 83.7076 46.88ZM106.294 44.18C105.534 43.7 105.154 42.94 105.154 41.9C105.154 40.86 105.914 39.28 107.434 37.16C107.874 36.48 108.574 36.14 109.534 36.14C110.534 36.14 111.874 36.64 113.554 37.64C115.234 38.6 116.754 39.08 118.114 39.08C120.554 39.08 121.774 38.6 121.774 37.64C121.774 36.88 120.434 36.32 117.754 35.96C115.234 35.6 112.734 34.66 110.254 33.14C109.094 32.42 108.134 31.3 107.374 29.78C106.614 28.22 106.234 26.38 106.234 24.26C106.234 17.94 110.574 14.78 119.254 14.78C122.094 14.78 125.014 15.46 128.014 16.82C129.414 17.46 130.114 18.26 130.114 19.22C130.114 20.18 129.674 21.36 128.794 22.76C127.914 24.16 127.014 24.86 126.094 24.86C125.614 24.86 124.714 24.56 123.394 23.96C122.114 23.36 120.714 23.06 119.194 23.06C116.834 23.06 115.654 23.5 115.654 24.38C115.654 25.58 117.014 26.36 119.734 26.72C122.374 27 124.934 27.76 127.414 29C128.574 29.56 129.534 30.54 130.294 31.94C131.094 33.3 131.494 35.02 131.494 37.1C131.494 39.18 131.094 40.96 130.294 42.44C129.534 43.88 128.454 44.96 127.054 45.68C124.494 46.92 121.274 47.54 117.394 47.54C113.554 47.54 109.854 46.42 106.294 44.18ZM152.93 15.5C156.93 15.5 160.25 17.02 162.89 20.06C165.57 23.1 166.91 26.82 166.91 31.22V41.78C166.91 42.7 166.87 43.4 166.79 43.88C166.75 44.32 166.57 44.84 166.25 45.44C165.73 46.48 164.19 47 161.63 47C159.19 47 157.67 46.48 157.07 45.44C156.75 44.84 156.55 44.3 156.47 43.82C156.43 43.34 156.41 42.62 156.41 41.66V31.16C156.41 29.52 155.95 28.24 155.03 27.32C154.11 26.4 152.93 25.94 151.49 25.94C150.09 25.94 148.85 26.38 147.77 27.26C146.69 28.1 146.07 29.06 145.91 30.14V41.78C145.91 42.7 145.87 43.4 145.79 43.88C145.75 44.32 145.57 44.84 145.25 45.44C144.73 46.48 143.19 47 140.63 47C138.11 47 136.57 46.46 136.01 45.38C135.73 44.78 135.55 44.26 135.47 43.82C135.43 43.38 135.41 42.68 135.41 41.72V5.84C135.41 4.92 135.43 4.24 135.47 3.8C135.55 3.32 135.73 2.8 136.01 2.24C136.57 1.16 138.13 0.619996 140.69 0.619996C143.21 0.619996 144.73 1.16 145.25 2.24C145.57 2.84 145.75 3.38 145.79 3.86C145.87 4.3 145.91 4.98 145.91 5.9V19.16C147.91 16.72 150.25 15.5 152.93 15.5ZM186.914 8.3C186.914 7.38 186.934 6.7 186.974 6.26C187.054 5.78 187.254 5.24 187.574 4.64C188.134 3.56 189.694 3.02 192.254 3.02C195.054 3.02 196.714 3.76 197.234 5.24C197.434 5.92 197.534 6.96 197.534 8.36V41.72C197.534 42.68 197.494 43.38 197.414 43.82C197.374 44.26 197.194 44.78 196.874 45.38C196.314 46.46 194.754 47 192.194 47C189.394 47 187.754 46.24 187.274 44.72C187.034 44.08 186.914 43.06 186.914 41.66V8.3ZM220.684 26L216.784 25.76V34.04C216.784 35.12 216.944 35.9 217.264 36.38C217.624 36.86 218.264 37.1 219.184 37.1C220.144 37.1 220.864 37.14 221.344 37.22C221.864 37.26 222.404 37.44 222.964 37.76C223.884 38.28 224.344 39.62 224.344 41.78C224.344 44.3 223.784 45.84 222.664 46.4C222.064 46.68 221.524 46.86 221.044 46.94C220.604 46.98 219.944 47 219.064 47C214.904 47 211.744 46.06 209.584 44.18C207.424 42.3 206.344 39.12 206.344 34.64V25.76C205.584 25.88 204.764 25.94 203.884 25.94C203.004 25.94 202.264 25.6 201.664 24.92C201.104 24.24 200.824 23.08 200.824 21.44C200.824 19.8 200.924 18.62 201.124 17.9C201.324 17.14 201.604 16.6 201.964 16.28C202.604 15.76 203.404 15.5 204.364 15.5L206.344 15.74V9.56C206.344 8.64 206.364 7.96 206.404 7.52C206.484 7.08 206.684 6.6 207.004 6.08C207.524 5.08 209.064 4.58 211.624 4.58C214.344 4.58 215.964 5.32 216.484 6.8C216.684 7.44 216.784 8.46 216.784 9.86V15.74C218.544 15.58 219.864 15.5 220.744 15.5C221.664 15.5 222.344 15.54 222.784 15.62C223.264 15.66 223.804 15.84 224.404 16.16C225.444 16.68 225.964 18.22 225.964 20.78C225.964 23.3 225.424 24.84 224.344 25.4C223.744 25.68 223.204 25.86 222.724 25.94C222.284 25.98 221.604 26 220.684 26Z" fill="white"/>
</svg>
