<svg width="542" height="542" viewBox="0 0 542 542" fill="none" xmlns="http://www.w3.org/2000/svg">
<path d="M542 414.521H0V414.791H542V414.521Z" fill="#EBEBEB" fill-opacity="0.51"/>
<mask id="mask0_52_1403" style="mask-type:luminance" maskUnits="userSpaceOnUse" x="0" y="0" width="542" height="542">
<path d="M542 0H0V542H542V0Z" fill="white"/>
</mask>
<g mask="url(#mask0_52_1403)">
<path d="M256.924 366.175H47.6045C44.1931 366.175 41.417 363.399 41.417 359.988V65.7555C41.417 62.3452 44.1931 59.568 47.6045 59.568H256.924C260.334 59.568 263.11 62.3452 263.11 65.7555V359.988C263.11 363.399 260.334 366.175 256.924 366.175ZM47.6045 59.839C44.3416 59.839 41.688 62.4937 41.688 65.7555V359.988C41.688 363.251 44.3416 365.904 47.6045 365.904H256.924C260.184 365.904 262.839 363.251 262.839 359.988V65.7555C262.839 62.4937 260.184 59.839 256.924 59.839H47.6045Z" fill="#EBEBEB" fill-opacity="0.51"/>
</g>
<mask id="mask1_52_1403" style="mask-type:luminance" maskUnits="userSpaceOnUse" x="0" y="0" width="542" height="542">
<path d="M542 0H0V542H542V0Z" fill="white"/>
</mask>
<g mask="url(#mask1_52_1403)">
<path d="M491.389 366.175H282.07C278.659 366.175 275.883 363.399 275.883 359.988V65.7555C275.883 62.3452 278.659 59.568 282.07 59.568H491.389C494.8 59.568 497.576 62.3452 497.576 65.7555V359.988C497.576 363.399 494.8 366.175 491.389 366.175ZM282.07 59.839C278.808 59.839 276.154 62.4937 276.154 65.7555V359.988C276.154 363.251 278.808 365.904 282.07 365.904H491.389C494.652 365.904 497.305 363.251 497.305 359.988V65.7555C497.305 62.4937 494.652 59.839 491.389 59.839H282.07Z" fill="#EBEBEB" fill-opacity="0.51"/>
</g>
<mask id="mask2_52_1403" style="mask-type:luminance" maskUnits="userSpaceOnUse" x="0" y="0" width="542" height="542">
<path d="M542 0H0V542H542V0Z" fill="white"/>
</mask>
<g mask="url(#mask2_52_1403)">
<path d="M487.692 424.843H453.473V425.114H487.692V424.843Z" fill="#EBEBEB" fill-opacity="0.51"/>
</g>
<mask id="mask3_52_1403" style="mask-type:luminance" maskUnits="userSpaceOnUse" x="0" y="0" width="542" height="542">
<path d="M542 0H0V542H542V0Z" fill="white"/>
</mask>
<g mask="url(#mask3_52_1403)">
<path d="M363.502 421.901H327.288V422.172H363.502V421.901Z" fill="#EBEBEB" fill-opacity="0.51"/>
</g>
<mask id="mask4_52_1403" style="mask-type:luminance" maskUnits="userSpaceOnUse" x="0" y="0" width="542" height="542">
<path d="M542 0H0V542H542V0Z" fill="white"/>
</mask>
<g mask="url(#mask4_52_1403)">
<path d="M497.577 434.91H429.899V435.181H497.577V434.91Z" fill="#EBEBEB" fill-opacity="0.51"/>
</g>
<mask id="mask5_52_1403" style="mask-type:luminance" maskUnits="userSpaceOnUse" x="0" y="0" width="542" height="542">
<path d="M542 0H0V542H542V0Z" fill="white"/>
</mask>
<g mask="url(#mask5_52_1403)">
<path d="M77.7154 433.087H56.8657V433.358H77.7154V433.087Z" fill="#EBEBEB" fill-opacity="0.51"/>
</g>
<mask id="mask6_52_1403" style="mask-type:luminance" maskUnits="userSpaceOnUse" x="0" y="0" width="542" height="542">
<path d="M542 0H0V542H542V0Z" fill="white"/>
</mask>
<g mask="url(#mask6_52_1403)">
<path d="M120.204 433.087H87.3672V433.358H120.204V433.087Z" fill="#EBEBEB" fill-opacity="0.51"/>
</g>
<mask id="mask7_52_1403" style="mask-type:luminance" maskUnits="userSpaceOnUse" x="0" y="0" width="542" height="542">
<path d="M542 0H0V542H542V0Z" fill="white"/>
</mask>
<g mask="url(#mask7_52_1403)">
<path d="M264.641 428.512H205.502V428.783H264.641V428.512Z" fill="#EBEBEB" fill-opacity="0.51"/>
</g>
<mask id="mask8_52_1403" style="mask-type:luminance" maskUnits="userSpaceOnUse" x="0" y="0" width="542" height="542">
<path d="M542 0H0V542H542V0Z" fill="white"/>
</mask>
<g mask="url(#mask8_52_1403)">
<path d="M494.794 276.685C483.801 272.075 465.586 276.523 450.498 294.819C443.524 303.276 436.812 315.671 435.001 328.362C435.121 313.883 435.264 298.324 435.41 283.643C437.739 274.036 439.885 269.65 443.202 262.983C454.271 240.738 463.421 243.193 478.455 225.784C503.465 196.822 517.8 142.175 492.916 163.952C470.36 183.689 459.447 203.438 451.862 220.577C441.613 243.735 437.494 259.896 435.486 276.12C435.626 262.33 435.764 249.67 435.881 239.9C436.265 208.037 437.134 197.794 437.294 194.634C437.686 186.964 440.217 182.508 440.92 181.405C446.851 172.098 456.157 166.003 465.281 155.393C486.532 130.683 498.802 100.063 488.567 97.2283C477.865 94.2647 463.8 107.751 448.178 139.408C439.222 157.555 436.944 161.848 435.132 197.404C434.975 200.496 434.3 212.138 433.975 228.315C431.446 210.912 426.646 193.644 418.258 182.166C402.101 160.059 389.813 157.949 380.855 160.059C371.896 162.169 375.655 185.38 385.757 197.787C400.961 216.456 426.292 212.48 433.806 237.318C433.429 259.245 433.151 287.023 433.001 312.886C430.444 299.53 427.772 288.421 421.896 277.96C410.97 258.508 397.529 250.025 388.277 259.187C382.526 264.882 389.201 280.846 401.237 287.406C413.455 294.064 423.475 303.276 427.356 308.808C428.261 310.098 431.262 315.047 432.975 317.892C432.809 349.468 432.838 377.339 433.107 386.843L434.717 386.937C434.621 384.483 434.696 368.421 434.853 347.165C437.515 320.632 456.251 319.19 468.229 314.146C489.602 305.145 505.789 281.293 494.794 276.685Z" fill="#E6E6E6" fill-opacity="0.38"/>
</g>
<mask id="mask9_52_1403" style="mask-type:luminance" maskUnits="userSpaceOnUse" x="0" y="0" width="542" height="542">
<path d="M542 0H0V542H542V0Z" fill="white"/>
</mask>
<g mask="url(#mask9_52_1403)">
<path d="M418.43 414.519H450.025C451.753 414.519 453.24 413.508 453.581 412.103L455.824 372.927H412.63L414.873 412.103C415.216 413.509 416.704 414.519 418.43 414.519Z" fill="#E6E6E6" fill-opacity="0.38"/>
</g>
<mask id="mask10_52_1403" style="mask-type:luminance" maskUnits="userSpaceOnUse" x="0" y="0" width="542" height="542">
<path d="M542 0H0V542H542V0Z" fill="white"/>
</mask>
<g mask="url(#mask10_52_1403)">
<path d="M413.423 386.265H455.035C456.031 386.265 456.868 384.954 456.981 383.219L457.832 369.988C457.962 367.954 457.053 366.174 455.885 366.174H412.573C411.405 366.174 410.497 367.954 410.626 369.988L411.476 383.219C411.588 384.954 412.426 386.265 413.423 386.265Z" fill="#F5F5F5" fill-opacity="0.17"/>
</g>
<mask id="mask11_52_1403" style="mask-type:luminance" maskUnits="userSpaceOnUse" x="0" y="0" width="542" height="542">
<path d="M542 0H0V542H542V0Z" fill="white"/>
</mask>
<g mask="url(#mask11_52_1403)">
<path d="M201.632 330.04H160.621V407.343H201.632V330.04Z" fill="#F0F0F0" fill-opacity="0.44"/>
</g>
<mask id="mask12_52_1403" style="mask-type:luminance" maskUnits="userSpaceOnUse" x="0" y="0" width="542" height="542">
<path d="M542 0H0V542H542V0Z" fill="white"/>
</mask>
<g mask="url(#mask12_52_1403)">
<path d="M370.741 407.342H168.495V414.519H370.741V407.342Z" fill="#F0F0F0" fill-opacity="0.44"/>
</g>
<mask id="mask13_52_1403" style="mask-type:luminance" maskUnits="userSpaceOnUse" x="0" y="0" width="542" height="542">
<path d="M542 0H0V542H542V0Z" fill="white"/>
</mask>
<g mask="url(#mask13_52_1403)">
<path d="M378.618 330.04H201.632V407.343H378.618V330.04Z" fill="#FAFAFA" fill-opacity="0.47"/>
</g>
<mask id="mask14_52_1403" style="mask-type:luminance" maskUnits="userSpaceOnUse" x="0" y="0" width="542" height="542">
<path d="M542 0H0V542H542V0Z" fill="white"/>
</mask>
<g mask="url(#mask14_52_1403)">
<path d="M362.491 339.445H217.754V363.231H362.491V339.445Z" fill="#F0F0F0" fill-opacity="0.44"/>
</g>
<mask id="mask15_52_1403" style="mask-type:luminance" maskUnits="userSpaceOnUse" x="0" y="0" width="542" height="542">
<path d="M542 0H0V542H542V0Z" fill="white"/>
</mask>
<g mask="url(#mask15_52_1403)">
<path d="M362.491 370.006H217.754V393.794H362.491V370.006Z" fill="#F0F0F0" fill-opacity="0.44"/>
</g>
<mask id="mask16_52_1403" style="mask-type:luminance" maskUnits="userSpaceOnUse" x="0" y="0" width="542" height="542">
<path d="M542 0H0V542H542V0Z" fill="white"/>
</mask>
<g mask="url(#mask16_52_1403)">
<path d="M307.878 341.589H272.371C270.998 341.589 269.876 340.466 269.876 339.094V338.989C269.876 337.616 270.999 336.494 272.371 336.494H307.878C309.25 336.494 310.373 337.616 310.373 338.989V339.094C310.372 340.466 309.249 341.589 307.878 341.589Z" fill="#FAFAFA" fill-opacity="0.47"/>
</g>
<mask id="mask17_52_1403" style="mask-type:luminance" maskUnits="userSpaceOnUse" x="0" y="0" width="542" height="542">
<path d="M542 0H0V542H542V0Z" fill="white"/>
</mask>
<g mask="url(#mask17_52_1403)">
<path d="M307.878 372.151H272.371C270.998 372.151 269.876 371.028 269.876 369.656V369.552C269.876 368.178 270.999 367.056 272.371 367.056H307.878C309.25 367.056 310.373 368.178 310.373 369.552V369.656C310.372 371.027 309.249 372.151 307.878 372.151Z" fill="#FAFAFA" fill-opacity="0.47"/>
</g>
<mask id="mask18_52_1403" style="mask-type:luminance" maskUnits="userSpaceOnUse" x="0" y="0" width="542" height="542">
<path d="M542 0H0V542H542V0Z" fill="white"/>
</mask>
<g mask="url(#mask18_52_1403)">
<path d="M384.082 323.109H201.632V330.041H384.082V323.109Z" fill="#F0F0F0" fill-opacity="0.44"/>
</g>
<mask id="mask19_52_1403" style="mask-type:luminance" maskUnits="userSpaceOnUse" x="0" y="0" width="542" height="542">
<path d="M542 0H0V542H542V0Z" fill="white"/>
</mask>
<g mask="url(#mask19_52_1403)">
<path d="M201.631 323.109H154.889V330.041H201.631V323.109Z" fill="#E6E6E6" fill-opacity="0.38"/>
</g>
<mask id="mask20_52_1403" style="mask-type:luminance" maskUnits="userSpaceOnUse" x="0" y="0" width="542" height="542">
<path d="M542 0H0V542H542V0Z" fill="white"/>
</mask>
<g mask="url(#mask20_52_1403)">
<path d="M121.24 353.905C116.557 351.45 108.339 352.725 100.976 360.238C97.5734 363.71 94.136 368.933 92.8547 374.473C93.4574 368.079 94.1111 361.209 94.7322 354.726C96.1273 350.569 97.2417 348.712 98.9609 345.893C104.696 336.481 108.646 337.914 115.95 330.791C128.103 318.941 136.512 295.337 124.689 304.015C113.972 311.881 108.399 320.194 104.397 327.48C98.988 337.326 96.5544 344.31 95.0509 351.404C95.6362 345.316 96.1782 339.726 96.601 335.412C97.9799 321.345 98.7528 316.852 98.9435 315.463C99.4075 312.088 100.695 310.214 101.048 309.753C104.022 305.865 108.366 303.525 112.8 299.183C123.13 289.068 129.714 276.004 125.299 274.364C120.682 272.648 113.956 278.073 105.85 291.47C101.204 299.149 100.033 300.96 97.8834 316.605C97.6958 317.965 96.9566 323.085 96.1978 330.221C95.7414 322.434 94.2758 314.62 91.0043 309.232C84.703 298.848 79.3535 297.449 75.3134 298.042C71.2744 298.635 72.0549 309.033 76.0484 314.901C82.0581 323.729 93.4032 322.933 95.7815 334.195C94.7831 343.871 93.6059 356.135 92.5577 367.56C91.9333 361.56 91.1745 356.549 88.9751 351.704C84.8851 342.693 79.2668 338.434 74.831 342.131C72.0744 344.429 74.417 351.737 79.4879 355.094C84.6337 358.499 88.7127 362.95 90.2173 365.543C90.5685 366.148 91.7067 368.448 92.355 369.77C91.0834 383.718 90.0385 396.036 89.7967 400.246L90.5046 400.349C90.5555 399.261 91.1984 392.165 92.0742 382.778C94.2585 371.153 102.593 371.228 108.077 369.453C117.864 366.286 125.923 356.36 121.24 353.905Z" fill="#F0F0F0" fill-opacity="0.44"/>
</g>
<mask id="mask21_52_1403" style="mask-type:luminance" maskUnits="userSpaceOnUse" x="0" y="0" width="542" height="542">
<path d="M542 0H0V542H542V0Z" fill="white"/>
</mask>
<g mask="url(#mask21_52_1403)">
<path d="M48.7173 329.752C54.779 327.018 65.0044 329.226 73.6927 339.204C77.7067 343.816 81.6362 350.628 82.8351 357.679C82.5522 349.605 82.24 340.931 81.9386 332.746C80.4958 327.423 79.2341 325.009 77.285 321.341C70.7799 309.101 65.7133 310.607 57.0706 301.123C42.6892 285.346 33.8784 255.085 48.081 266.857C60.9546 277.526 67.3361 288.377 71.8228 297.822C77.8845 310.584 80.4221 319.534 81.7847 328.553C81.5007 320.864 81.2351 313.806 81.0238 308.36C80.3332 290.596 79.6958 284.896 79.5582 283.137C79.2265 278.866 77.7479 276.418 77.3392 275.813C73.8932 270.711 68.612 267.45 63.3654 261.67C51.1444 248.207 43.8447 231.315 49.5097 229.582C55.4338 227.769 63.4781 235.08 72.6639 252.501C77.9289 262.486 79.2644 264.847 80.8059 284.65C80.9403 286.37 81.4899 292.854 81.9137 301.87C83.0638 292.127 85.4822 282.426 89.9884 275.9C98.6691 263.33 105.491 261.968 110.518 263.012C115.546 264.055 113.796 277.056 108.347 284.125C100.148 294.764 85.9614 292.925 82.1424 306.889C82.6801 319.111 83.2492 334.6 83.7207 349.02C84.9478 341.533 86.2714 335.298 89.3911 329.377C95.1938 318.367 102.564 313.433 107.859 318.405C111.151 321.496 107.668 330.498 101.054 334.335C94.3396 338.231 88.8893 343.518 86.808 346.661C86.3223 347.394 84.7234 350.199 83.8107 351.811C84.3744 369.418 84.7755 384.962 84.7668 390.266L83.8703 390.342C83.8866 388.972 83.6048 380.017 83.1993 368.165C81.3186 353.408 70.8482 352.882 64.0938 350.249C52.0387 345.548 42.6556 332.488 48.7173 329.752Z" fill="#E6E6E6" fill-opacity="0.38"/>
</g>
<mask id="mask22_52_1403" style="mask-type:luminance" maskUnits="userSpaceOnUse" x="0" y="0" width="542" height="542">
<path d="M542 0H0V542H542V0Z" fill="white"/>
</mask>
<g mask="url(#mask22_52_1403)">
<path d="M74.3502 414.519H102.377C103.909 414.519 105.228 413.623 105.533 412.374L107.523 377.622H69.2056L71.1947 412.374C71.4993 413.623 72.8185 414.519 74.3502 414.519Z" fill="#E6E6E6" fill-opacity="0.38"/>
</g>
<mask id="mask23_52_1403" style="mask-type:luminance" maskUnits="userSpaceOnUse" x="0" y="0" width="542" height="542">
<path d="M542 0H0V542H542V0Z" fill="white"/>
</mask>
<g mask="url(#mask23_52_1403)">
<path d="M69.91 389.455H106.822C107.707 389.455 108.449 388.292 108.549 386.754L109.304 375.016C109.42 373.212 108.613 371.633 107.577 371.633H69.1544C68.1171 371.633 67.3116 373.212 67.4276 375.016L68.1821 386.754C68.2807 388.292 69.0244 389.455 69.91 389.455Z" fill="#F5F5F5" fill-opacity="0.17"/>
</g>
<mask id="mask24_52_1403" style="mask-type:luminance" maskUnits="userSpaceOnUse" x="0" y="0" width="542" height="542">
<path d="M542 0H0V542H542V0Z" fill="white"/>
</mask>
<g mask="url(#mask24_52_1403)">
<path d="M296.186 86.5659H65.248V217.145H296.186V86.5659Z" fill="#E6E6E6" fill-opacity="0.38"/>
</g>
<mask id="mask25_52_1403" style="mask-type:luminance" maskUnits="userSpaceOnUse" x="0" y="0" width="542" height="542">
<path d="M542 0H0V542H542V0Z" fill="white"/>
</mask>
<g mask="url(#mask25_52_1403)">
<path d="M303.4 86.5659H66.4688V217.145H303.4V86.5659Z" fill="#F5F5F5" fill-opacity="0.17"/>
</g>
<mask id="mask26_52_1403" style="mask-type:luminance" maskUnits="userSpaceOnUse" x="0" y="0" width="542" height="542">
<path d="M542 0H0V542H542V0Z" fill="white"/>
</mask>
<g mask="url(#mask26_52_1403)">
<path d="M72.2319 206.846V96.8651C72.2319 94.36 74.2623 92.3297 76.7663 92.3297H293.1C295.605 92.3297 297.636 94.36 297.636 96.8651V206.846C297.636 209.351 295.605 211.381 293.1 211.381H76.7663C74.2623 211.381 72.2319 209.351 72.2319 206.846Z" fill="white" fill-opacity="0.52"/>
</g>
<mask id="mask27_52_1403" style="mask-type:luminance" maskUnits="userSpaceOnUse" x="0" y="0" width="542" height="542">
<path d="M542 0H0V542H542V0Z" fill="white"/>
</mask>
<g mask="url(#mask27_52_1403)">
<path d="M481.177 451.202C481.177 457.981 387.077 463.476 271 463.476C154.923 463.476 60.8242 457.981 60.8242 451.202C60.8242 444.423 154.923 438.928 271 438.928C387.077 438.928 481.177 444.423 481.177 451.202Z" fill="#F5F5F5" fill-opacity="0.17"/>
</g>
<mask id="mask28_52_1403" style="mask-type:luminance" maskUnits="userSpaceOnUse" x="0" y="0" width="542" height="542">
<path d="M542 0H0V542H542V0Z" fill="white"/>
</mask>
<g mask="url(#mask28_52_1403)">
<path d="M435.672 338.649H409.662V337.565H435.672C441.709 337.565 447.552 334.009 450.557 328.504L451.507 329.023C448.316 334.872 442.1 338.649 435.672 338.649Z" fill="#407BFF"/>
</g>
<mask id="mask29_52_1403" style="mask-type:luminance" maskUnits="userSpaceOnUse" x="0" y="0" width="542" height="542">
<path d="M542 0H0V542H542V0Z" fill="white"/>
</mask>
<g mask="url(#mask29_52_1403)">
<path d="M404.513 337.565H393.853V338.649H404.513V337.565Z" fill="#407BFF"/>
</g>
<mask id="mask30_52_1403" style="mask-type:luminance" maskUnits="userSpaceOnUse" x="0" y="0" width="542" height="542">
<path d="M542 0H0V542H542V0Z" fill="white"/>
</mask>
<g mask="url(#mask30_52_1403)">
<path d="M435.672 334.855H131.283C124.129 334.855 118.786 329.002 119.409 321.847L135.861 133.231C136.485 126.076 142.849 120.223 150.004 120.223H454.393C461.547 120.223 466.889 126.076 466.266 133.231L449.814 321.847C449.191 329.002 442.827 334.855 435.672 334.855Z" fill="#407BFF"/>
</g>
<mask id="mask31_52_1403" style="mask-type:luminance" maskUnits="userSpaceOnUse" x="0" y="0" width="542" height="542">
<path d="M542 0H0V542H542V0Z" fill="white"/>
</mask>
<g mask="url(#mask31_52_1403)">
<path d="M429.331 330.903H132.535C126.443 330.903 121.895 325.919 122.426 319.827L137.413 147.997C137.566 146.24 139.115 144.817 140.871 144.817H453.458C455.214 144.817 456.514 146.24 456.362 147.997L441.375 319.827C440.842 325.919 435.423 330.903 429.331 330.903Z" fill="white" fill-opacity="0.52"/>
</g>
<mask id="mask32_52_1403" style="mask-type:luminance" maskUnits="userSpaceOnUse" x="0" y="0" width="542" height="542">
<path d="M542 0H0V542H542V0Z" fill="white"/>
</mask>
<g mask="url(#mask32_52_1403)">
<path d="M170.356 136.211C161.54 136.211 154.994 129.039 155.762 120.223C156.532 111.407 164.329 104.234 173.146 104.234C181.962 104.234 188.508 111.407 187.739 120.223H181.235C181.691 114.993 177.808 110.738 172.579 110.738C167.348 110.738 162.723 114.993 162.266 120.223C161.811 125.452 165.694 129.707 170.923 129.707L170.356 136.211Z" fill="#263238"/>
</g>
<mask id="mask33_52_1403" style="mask-type:luminance" maskUnits="userSpaceOnUse" x="0" y="0" width="542" height="542">
<path d="M542 0H0V542H542V0Z" fill="white"/>
</mask>
<g mask="url(#mask33_52_1403)">
<path d="M234.693 136.211C225.877 136.211 219.33 129.039 220.098 120.223C220.868 111.407 228.666 104.234 237.483 104.234C246.299 104.234 252.845 111.407 252.075 120.223H245.571C246.028 114.993 242.145 110.738 236.916 110.738C231.684 110.738 227.059 114.993 226.602 120.223C226.147 125.452 230.03 129.707 235.26 129.707L234.693 136.211Z" fill="#263238"/>
</g>
<mask id="mask34_52_1403" style="mask-type:luminance" maskUnits="userSpaceOnUse" x="0" y="0" width="542" height="542">
<path d="M542 0H0V542H542V0Z" fill="white"/>
</mask>
<g mask="url(#mask34_52_1403)">
<path d="M299.031 136.211C290.214 136.211 283.666 129.039 284.435 120.223C285.206 111.407 293.003 104.234 301.819 104.234C310.636 104.234 317.181 111.407 316.413 120.223H309.909C310.365 114.993 306.482 110.738 301.253 110.738C296.022 110.738 291.396 114.993 290.939 120.223C290.484 125.452 294.366 129.707 299.597 129.707L299.031 136.211Z" fill="#263238"/>
</g>
<mask id="mask35_52_1403" style="mask-type:luminance" maskUnits="userSpaceOnUse" x="0" y="0" width="542" height="542">
<path d="M542 0H0V542H542V0Z" fill="white"/>
</mask>
<g mask="url(#mask35_52_1403)">
<path d="M363.368 136.211C354.55 136.211 348.004 129.039 348.773 120.223C349.543 111.407 357.34 104.234 366.156 104.234C374.973 104.234 381.519 111.407 380.75 120.223H374.246C374.703 114.993 370.82 110.738 365.59 110.738C360.36 110.738 355.734 114.993 355.277 120.223C354.821 125.452 358.704 129.707 363.934 129.707L363.368 136.211Z" fill="#263238"/>
</g>
<mask id="mask36_52_1403" style="mask-type:luminance" maskUnits="userSpaceOnUse" x="0" y="0" width="542" height="542">
<path d="M542 0H0V542H542V0Z" fill="white"/>
</mask>
<g mask="url(#mask36_52_1403)">
<path d="M427.705 136.211C418.888 136.211 412.342 129.039 413.111 120.223C413.881 111.407 421.677 104.234 430.493 104.234C439.31 104.234 445.857 111.407 445.088 120.223H438.582C439.039 114.993 435.157 110.738 429.927 110.738C424.697 110.738 420.072 114.993 419.615 120.223C419.159 125.452 423.042 129.707 428.271 129.707L427.705 136.211Z" fill="#263238"/>
</g>
<mask id="mask37_52_1403" style="mask-type:luminance" maskUnits="userSpaceOnUse" x="0" y="0" width="542" height="542">
<path d="M542 0H0V542H542V0Z" fill="white"/>
</mask>
<g mask="url(#mask37_52_1403)">
<path d="M428.546 323.109H135.148C134.848 323.109 134.627 322.866 134.653 322.567L149.277 154.911C149.303 154.612 149.567 154.369 149.866 154.369H443.263C443.564 154.369 443.785 154.612 443.759 154.911L429.136 322.567C429.109 322.867 428.845 323.109 428.546 323.109ZM135.785 322.025H428.098L442.627 155.453H150.313L135.785 322.025Z" fill="#E0E0E0" fill-opacity="0.48"/>
</g>
<mask id="mask38_52_1403" style="mask-type:luminance" maskUnits="userSpaceOnUse" x="0" y="0" width="542" height="542">
<path d="M542 0H0V542H542V0Z" fill="white"/>
</mask>
<g mask="url(#mask38_52_1403)">
<path d="M431.47 289.578H138.072C137.773 289.578 137.551 289.335 137.578 289.036C137.604 288.736 137.867 288.494 138.167 288.494H431.564C431.864 288.494 432.086 288.736 432.06 289.036C432.034 289.335 431.77 289.578 431.47 289.578Z" fill="#E0E0E0" fill-opacity="0.48"/>
</g>
<mask id="mask39_52_1403" style="mask-type:luminance" maskUnits="userSpaceOnUse" x="0" y="0" width="542" height="542">
<path d="M542 0H0V542H542V0Z" fill="white"/>
</mask>
<g mask="url(#mask39_52_1403)">
<path d="M434.395 256.046H140.997C140.698 256.046 140.476 255.803 140.503 255.504C140.529 255.205 140.792 254.962 141.091 254.962H434.489C434.789 254.962 435.009 255.205 434.984 255.504C434.958 255.803 434.694 256.046 434.395 256.046Z" fill="#E0E0E0" fill-opacity="0.48"/>
</g>
<mask id="mask40_52_1403" style="mask-type:luminance" maskUnits="userSpaceOnUse" x="0" y="0" width="542" height="542">
<path d="M542 0H0V542H542V0Z" fill="white"/>
</mask>
<g mask="url(#mask40_52_1403)">
<path d="M437.321 222.515H143.922C143.623 222.515 143.4 222.272 143.428 221.973C143.454 221.674 143.717 221.431 144.016 221.431H437.414C437.713 221.431 437.934 221.674 437.909 221.973C437.883 222.272 437.619 222.515 437.321 222.515Z" fill="#E0E0E0" fill-opacity="0.48"/>
</g>
<mask id="mask41_52_1403" style="mask-type:luminance" maskUnits="userSpaceOnUse" x="0" y="0" width="542" height="542">
<path d="M542 0H0V542H542V0Z" fill="white"/>
</mask>
<g mask="url(#mask41_52_1403)">
<path d="M440.243 188.985H146.846C146.546 188.985 146.324 188.742 146.35 188.443C146.377 188.143 146.641 187.901 146.94 187.901H440.338C440.638 187.901 440.859 188.143 440.833 188.443C440.807 188.742 440.542 188.985 440.243 188.985Z" fill="#E0E0E0" fill-opacity="0.48"/>
</g>
<mask id="mask42_52_1403" style="mask-type:luminance" maskUnits="userSpaceOnUse" x="0" y="0" width="542" height="542">
<path d="M542 0H0V542H542V0Z" fill="white"/>
</mask>
<g mask="url(#mask42_52_1403)">
<path d="M391.87 323.109C391.571 323.109 391.351 322.866 391.375 322.567L405.999 154.911C406.024 154.612 406.288 154.369 406.588 154.369C406.887 154.369 407.108 154.612 407.083 154.911L392.459 322.567C392.433 322.867 392.169 323.109 391.87 323.109Z" fill="#E0E0E0" fill-opacity="0.48"/>
</g>
<mask id="mask43_52_1403" style="mask-type:luminance" maskUnits="userSpaceOnUse" x="0" y="0" width="542" height="542">
<path d="M542 0H0V542H542V0Z" fill="white"/>
</mask>
<g mask="url(#mask43_52_1403)">
<path d="M355.195 323.109C354.896 323.109 354.676 322.866 354.701 322.567L369.324 154.911C369.349 154.612 369.613 154.369 369.914 154.369C370.213 154.369 370.433 154.612 370.408 154.911L355.785 322.567C355.759 322.867 355.494 323.109 355.195 323.109Z" fill="#E0E0E0" fill-opacity="0.48"/>
</g>
<mask id="mask44_52_1403" style="mask-type:luminance" maskUnits="userSpaceOnUse" x="0" y="0" width="542" height="542">
<path d="M542 0H0V542H542V0Z" fill="white"/>
</mask>
<g mask="url(#mask44_52_1403)">
<path d="M318.52 323.109C318.222 323.109 318.001 322.866 318.026 322.567L332.649 154.911C332.675 154.612 332.938 154.369 333.239 154.369C333.538 154.369 333.759 154.612 333.733 154.911L319.11 322.567C319.084 322.867 318.819 323.109 318.52 323.109Z" fill="#E0E0E0" fill-opacity="0.48"/>
</g>
<mask id="mask45_52_1403" style="mask-type:luminance" maskUnits="userSpaceOnUse" x="0" y="0" width="542" height="542">
<path d="M542 0H0V542H542V0Z" fill="white"/>
</mask>
<g mask="url(#mask45_52_1403)">
<path d="M281.847 323.109C281.549 323.109 281.328 322.866 281.353 322.567L295.976 154.911C296.002 154.612 296.265 154.369 296.565 154.369C296.865 154.369 297.086 154.612 297.06 154.911L282.437 322.567C282.41 322.867 282.146 323.109 281.847 323.109Z" fill="#E0E0E0" fill-opacity="0.48"/>
</g>
<mask id="mask46_52_1403" style="mask-type:luminance" maskUnits="userSpaceOnUse" x="0" y="0" width="542" height="542">
<path d="M542 0H0V542H542V0Z" fill="white"/>
</mask>
<g mask="url(#mask46_52_1403)">
<path d="M245.172 323.109C244.873 323.109 244.652 322.866 244.678 322.567L259.301 154.911C259.327 154.612 259.59 154.369 259.891 154.369C260.19 154.369 260.411 154.612 260.385 154.911L245.762 322.567C245.736 322.867 245.471 323.109 245.172 323.109Z" fill="#E0E0E0" fill-opacity="0.48"/>
</g>
<mask id="mask47_52_1403" style="mask-type:luminance" maskUnits="userSpaceOnUse" x="0" y="0" width="542" height="542">
<path d="M542 0H0V542H542V0Z" fill="white"/>
</mask>
<g mask="url(#mask47_52_1403)">
<path d="M208.496 323.109C208.197 323.109 207.976 322.866 208.002 322.567L222.625 154.911C222.651 154.612 222.914 154.369 223.214 154.369C223.514 154.369 223.735 154.612 223.709 154.911L209.086 322.567C209.06 322.867 208.795 323.109 208.496 323.109Z" fill="#E0E0E0" fill-opacity="0.48"/>
</g>
<mask id="mask48_52_1403" style="mask-type:luminance" maskUnits="userSpaceOnUse" x="0" y="0" width="542" height="542">
<path d="M542 0H0V542H542V0Z" fill="white"/>
</mask>
<g mask="url(#mask48_52_1403)">
<path d="M171.823 323.109C171.524 323.109 171.301 322.866 171.328 322.567L185.952 154.911C185.978 154.612 186.241 154.369 186.541 154.369C186.84 154.369 187.062 154.612 187.036 154.911L172.412 322.567C172.385 322.867 172.122 323.109 171.823 323.109Z" fill="#E0E0E0" fill-opacity="0.48"/>
</g>
<mask id="mask49_52_1403" style="mask-type:luminance" maskUnits="userSpaceOnUse" x="0" y="0" width="542" height="542">
<path d="M542 0H0V542H542V0Z" fill="white"/>
</mask>
<g mask="url(#mask49_52_1403)">
<path d="M320.503 218.621H298.093C296.18 218.621 294.764 217.069 294.93 215.155L296.666 195.262C296.833 193.348 298.52 191.796 300.435 191.796H322.842C324.758 191.796 326.173 193.348 326.006 195.262L324.271 215.155C324.103 217.069 322.417 218.621 320.503 218.621Z" fill="#407BFF"/>
</g>
<mask id="mask50_52_1403" style="mask-type:luminance" maskUnits="userSpaceOnUse" x="0" y="0" width="542" height="542">
<path d="M542 0H0V542H542V0Z" fill="white"/>
</mask>
<g mask="url(#mask50_52_1403)">
<g opacity="0.6">
<mask id="mask51_52_1403" style="mask-type:luminance" maskUnits="userSpaceOnUse" x="294" y="191" width="33" height="28">
<path d="M326.019 191.795H294.917V218.62H326.019V191.795Z" fill="white"/>
</mask>
<g mask="url(#mask51_52_1403)">
<path d="M320.503 218.622H298.093C296.18 218.622 294.764 217.07 294.93 215.157L296.666 195.263C296.833 193.349 298.52 191.797 300.435 191.797H322.842C324.758 191.797 326.173 193.349 326.006 195.263L324.271 215.157C324.103 217.07 322.417 218.622 320.503 218.622Z" fill="white" fill-opacity="0.52"/>
</g>
</g>
</g>
<mask id="mask52_52_1403" style="mask-type:luminance" maskUnits="userSpaceOnUse" x="0" y="0" width="542" height="542">
<path d="M542 0H0V542H542V0Z" fill="white"/>
</mask>
<g mask="url(#mask52_52_1403)">
<path d="M476.837 218.621H453.28L455.619 191.796H479.177L470.326 205.209L476.837 218.621Z" fill="white" fill-opacity="0.52"/>
</g>
<mask id="mask53_52_1403" style="mask-type:luminance" maskUnits="userSpaceOnUse" x="0" y="0" width="542" height="542">
<path d="M542 0H0V542H542V0Z" fill="white"/>
</mask>
<g mask="url(#mask53_52_1403)">
<path d="M477.724 219.163H452.692L455.126 191.253H480.159L470.95 205.208L477.724 219.163ZM453.871 218.079H475.95L469.701 205.208L478.195 192.337H456.116L453.871 218.079Z" fill="#407BFF"/>
</g>
<mask id="mask54_52_1403" style="mask-type:luminance" maskUnits="userSpaceOnUse" x="0" y="0" width="542" height="542">
<path d="M542 0H0V542H542V0Z" fill="white"/>
</mask>
<g mask="url(#mask54_52_1403)">
<path d="M390.718 252.152H368.309C366.396 252.152 364.98 250.599 365.146 248.686L366.883 228.792C367.048 226.879 368.736 225.327 370.651 225.327H393.058C394.973 225.327 396.389 226.879 396.222 228.792L394.487 248.686C394.32 250.599 392.633 252.152 390.718 252.152Z" fill="#407BFF"/>
</g>
<mask id="mask55_52_1403" style="mask-type:luminance" maskUnits="userSpaceOnUse" x="0" y="0" width="542" height="542">
<path d="M542 0H0V542H542V0Z" fill="white"/>
</mask>
<g mask="url(#mask55_52_1403)">
<g opacity="0.4">
<mask id="mask56_52_1403" style="mask-type:luminance" maskUnits="userSpaceOnUse" x="365" y="225" width="32" height="28">
<path d="M396.235 225.327H365.133V252.152H396.235V225.327Z" fill="white"/>
</mask>
<g mask="url(#mask56_52_1403)">
<path d="M390.717 252.152H368.309C366.395 252.152 364.98 250.599 365.146 248.686L366.882 228.792C367.048 226.879 368.736 225.327 370.65 225.327H393.057C394.973 225.327 396.389 226.879 396.222 228.792L394.486 248.686C394.319 250.599 392.633 252.152 390.717 252.152Z" fill="white" fill-opacity="0.52"/>
</g>
</g>
</g>
<mask id="mask57_52_1403" style="mask-type:luminance" maskUnits="userSpaceOnUse" x="0" y="0" width="542" height="542">
<path d="M542 0H0V542H542V0Z" fill="white"/>
</mask>
<g mask="url(#mask57_52_1403)">
<path d="M433.659 185.09H374.158C372.244 185.09 370.828 183.537 370.995 181.623L372.731 161.73C372.897 159.816 374.586 158.264 376.499 158.264H435.998C437.914 158.264 439.33 159.816 439.163 161.73L437.427 181.623C437.259 183.537 435.572 185.09 433.659 185.09Z" fill="#407BFF"/>
</g>
<mask id="mask58_52_1403" style="mask-type:luminance" maskUnits="userSpaceOnUse" x="0" y="0" width="542" height="542">
<path d="M542 0H0V542H542V0Z" fill="white"/>
</mask>
<g mask="url(#mask58_52_1403)">
<path d="M196.33 214.086C187.292 214.086 179.758 210.893 174.419 204.765C167.556 196.89 166.52 187.11 171.719 179.244C179.421 167.586 199.507 161.373 212.725 163.095C213.02 163.133 213.206 163.405 213.142 163.702C213.078 163.999 212.787 164.203 212.495 164.171C199.61 162.488 180.069 168.498 172.611 179.784C166.741 188.668 170.135 198.126 175.268 204.016C182.433 212.241 192.209 213.391 199.148 212.905C212.363 211.985 226.841 204.433 235.172 194.114C237.502 191.227 241.083 185.694 238.889 181.053C235.647 174.191 224.827 174.66 215.763 175.832C215.473 175.874 215.21 175.661 215.197 175.364C215.184 175.068 215.417 174.796 215.717 174.757C221.762 173.976 235.918 172.142 239.882 180.524C242.324 185.687 238.495 191.652 235.996 194.747C227.466 205.312 212.65 213.044 199.129 213.986C198.181 214.053 197.247 214.086 196.33 214.086Z" fill="#407BFF"/>
</g>
<mask id="mask59_52_1403" style="mask-type:luminance" maskUnits="userSpaceOnUse" x="0" y="0" width="542" height="542">
<path d="M542 0H0V542H542V0Z" fill="white"/>
</mask>
<g mask="url(#mask59_52_1403)">
<path d="M377.213 246.172C377.183 246.172 377.152 246.171 377.119 246.168C376.77 246.137 376.471 245.936 376.322 245.629C374.7 242.306 373.3 240.157 371.781 238.663C371.373 238.261 371.399 237.575 371.84 237.131C372.281 236.686 372.97 236.655 373.378 237.057C374.839 238.494 376.176 240.43 377.635 243.231C381.098 239.634 385.15 236.109 389.699 232.735C390.2 232.361 390.875 232.441 391.206 232.911C391.537 233.38 391.399 234.061 390.897 234.433C385.986 238.078 381.673 241.897 378.082 245.784C377.852 246.031 377.533 246.172 377.213 246.172Z" fill="white" fill-opacity="0.52"/>
</g>
<mask id="mask60_52_1403" style="mask-type:luminance" maskUnits="userSpaceOnUse" x="0" y="0" width="542" height="542">
<path d="M542 0H0V542H542V0Z" fill="white"/>
</mask>
<g mask="url(#mask60_52_1403)">
<path d="M337.306 317.974C330.594 317.974 325.61 312.514 326.195 305.801C326.781 299.09 332.718 293.629 339.43 293.629C346.142 293.629 351.127 299.089 350.541 305.801C349.955 312.514 344.018 317.974 337.306 317.974ZM339.241 295.797C333.724 295.797 328.843 300.286 328.363 305.801C327.882 311.319 331.979 315.806 337.496 315.806C343.012 315.806 347.893 311.318 348.373 305.801C348.853 300.286 344.758 295.797 339.241 295.797Z" fill="#407BFF"/>
</g>
<mask id="mask61_52_1403" style="mask-type:luminance" maskUnits="userSpaceOnUse" x="0" y="0" width="542" height="542">
<path d="M542 0H0V542H542V0Z" fill="white"/>
</mask>
<g mask="url(#mask61_52_1403)">
<path d="M233.081 250.781C226.368 250.781 221.384 245.32 221.97 238.607C222.556 231.895 228.492 226.434 235.204 226.434C241.917 226.434 246.9 231.895 246.315 238.607C245.73 245.32 239.794 250.781 233.081 250.781ZM235.016 228.602C229.499 228.602 224.619 233.091 224.138 238.607C223.656 244.124 227.754 248.613 233.27 248.613C238.787 248.613 243.666 244.124 244.147 238.607C244.628 233.091 240.532 228.602 235.016 228.602Z" fill="#407BFF"/>
</g>
<mask id="mask62_52_1403" style="mask-type:luminance" maskUnits="userSpaceOnUse" x="0" y="0" width="542" height="542">
<path d="M542 0H0V542H542V0Z" fill="white"/>
</mask>
<g mask="url(#mask62_52_1403)">
<g opacity="0.1">
<mask id="mask63_52_1403" style="mask-type:luminance" maskUnits="userSpaceOnUse" x="134" y="263" width="130" height="17">
<path d="M263.109 263.672H134.163V279.932H263.109V263.672Z" fill="white"/>
</mask>
<g mask="url(#mask63_52_1403)">
<path d="M254.239 279.932H141.615C137.144 279.932 133.805 276.274 134.195 271.802C134.584 267.331 138.563 263.672 143.034 263.672H255.657C260.129 263.672 263.469 267.331 263.078 271.802C262.688 276.274 258.711 279.932 254.239 279.932Z" fill="black"/>
</g>
</g>
</g>
<mask id="mask64_52_1403" style="mask-type:luminance" maskUnits="userSpaceOnUse" x="0" y="0" width="542" height="542">
<path d="M542 0H0V542H542V0Z" fill="white"/>
</mask>
<g mask="url(#mask64_52_1403)">
<path d="M104.489 254.097L108.715 255.914L103.043 262.857C103.043 262.857 101.474 260.211 100.749 257.378C100.447 256.196 101.14 254.986 102.321 254.673L104.489 254.097Z" fill="#FF8B7B"/>
</g>
<mask id="mask65_52_1403" style="mask-type:luminance" maskUnits="userSpaceOnUse" x="0" y="0" width="542" height="542">
<path d="M542 0H0V542H542V0Z" fill="white"/>
</mask>
<g mask="url(#mask65_52_1403)">
<path d="M110.658 263.369L108.121 266.186C107.297 267.1 105.833 266.997 105.144 265.975L103.042 262.857L108.714 255.914L110.998 261.372C111.28 262.047 111.148 262.825 110.658 263.369Z" fill="#FF8B7B"/>
</g>
<mask id="mask66_52_1403" style="mask-type:luminance" maskUnits="userSpaceOnUse" x="0" y="0" width="542" height="542">
<path d="M542 0H0V542H542V0Z" fill="white"/>
</mask>
<g mask="url(#mask66_52_1403)">
<path d="M259.767 277.199L113.164 265.591C108.706 265.238 105.666 261.327 106.407 256.9C107.15 252.473 111.403 249.141 115.861 249.493L262.464 261.101C266.922 261.455 269.962 265.365 269.221 269.792C268.479 274.219 264.225 277.552 259.767 277.199Z" fill="#407BFF"/>
</g>
<mask id="mask67_52_1403" style="mask-type:luminance" maskUnits="userSpaceOnUse" x="0" y="0" width="542" height="542">
<path d="M542 0H0V542H542V0Z" fill="white"/>
</mask>
<g mask="url(#mask67_52_1403)">
<path d="M156.321 208.786C158.153 212.92 160.031 217.157 161.932 221.28C163.825 225.387 165.783 229.578 167.888 233.152C168.407 234.026 168.939 234.836 169.377 235.367C170.026 236.137 170.749 236.929 171.495 237.742C172.999 239.354 174.61 240.97 176.221 242.598C179.458 245.84 182.759 249.134 185.966 252.497L182.684 256.732C178.552 254.362 174.611 251.794 170.758 248.996C168.827 247.601 166.935 246.144 165.054 244.559C164.106 243.774 163.175 242.925 162.224 242.004C161.074 240.829 160.266 239.721 159.502 238.656C156.564 234.392 154.379 230.213 152.209 225.945C150.088 221.669 148.15 217.406 146.344 212.966L156.321 208.786Z" fill="#FF8B7B"/>
</g>
<mask id="mask68_52_1403" style="mask-type:luminance" maskUnits="userSpaceOnUse" x="0" y="0" width="542" height="542">
<path d="M542 0H0V542H542V0Z" fill="white"/>
</mask>
<g mask="url(#mask68_52_1403)">
<path d="M120.472 208.173C118.015 212.194 115.486 216.235 112.963 220.241L105.432 232.247L104.513 233.746L104.398 233.934L104.341 234.026L104.333 234.043C104.32 234.068 104.302 234.089 104.281 234.111C104.236 234.15 104.199 234.289 104.14 234.371C103.945 234.86 103.757 235.704 103.679 236.626C103.527 238.504 103.637 240.709 103.865 242.913C104.338 247.342 105.21 252.01 106.141 256.53L101.119 258.399C98.8454 253.923 97.0243 249.391 95.7039 244.435C95.0774 241.942 94.5343 239.39 94.4357 236.484C94.4031 235.023 94.4324 233.466 94.8974 231.656C95.047 231.179 95.1587 230.735 95.3712 230.236L95.7029 229.493L95.8427 229.204L95.9468 229.001L96.7749 227.372C98.9982 223.047 101.344 218.83 103.762 214.666C106.193 210.5 108.694 206.419 111.345 202.367L120.472 208.173Z" fill="#FF8B7B"/>
</g>
<mask id="mask69_52_1403" style="mask-type:luminance" maskUnits="userSpaceOnUse" x="0" y="0" width="542" height="542">
<path d="M542 0H0V542H542V0Z" fill="white"/>
</mask>
<g mask="url(#mask69_52_1403)">
<path d="M149.164 178.107C148.963 178.646 149.081 179.202 149.429 179.347C149.776 179.491 150.22 179.171 150.421 178.631C150.623 178.091 150.503 177.536 150.156 177.392C149.809 177.247 149.364 177.567 149.164 178.107Z" fill="#263238"/>
</g>
<mask id="mask70_52_1403" style="mask-type:luminance" maskUnits="userSpaceOnUse" x="0" y="0" width="542" height="542">
<path d="M542 0H0V542H542V0Z" fill="white"/>
</mask>
<g mask="url(#mask70_52_1403)">
<path d="M149.032 179.182C149.032 179.182 149.081 182.799 149.852 184.857C148.58 185.356 147.133 184.282 147.133 184.282L149.032 179.182Z" fill="#FF5652"/>
</g>
<mask id="mask71_52_1403" style="mask-type:luminance" maskUnits="userSpaceOnUse" x="0" y="0" width="542" height="542">
<path d="M542 0H0V542H542V0Z" fill="white"/>
</mask>
<g mask="url(#mask71_52_1403)">
<path d="M151.142 174.941C151.076 174.932 151.013 174.903 150.961 174.855C150.923 174.819 150.011 173.991 148.593 174.341C148.415 174.386 148.229 174.277 148.184 174.095C148.139 173.914 148.25 173.73 148.431 173.686C150.218 173.243 151.377 174.317 151.425 174.364C151.56 174.49 151.566 174.703 151.438 174.838C151.36 174.923 151.248 174.958 151.142 174.941Z" fill="#263238"/>
</g>
<mask id="mask72_52_1403" style="mask-type:luminance" maskUnits="userSpaceOnUse" x="0" y="0" width="542" height="542">
<path d="M542 0H0V542H542V0Z" fill="white"/>
</mask>
<g mask="url(#mask72_52_1403)">
<path d="M129.393 179.173C128.718 185.009 129.829 192.352 125.837 195.28C125.837 195.28 126.673 200.76 136.269 202.185C146.82 203.754 141.887 197.667 141.887 197.667C136.28 195.428 136.899 191.154 138.342 187.266L129.393 179.173Z" fill="#FF8B7B"/>
</g>
<mask id="mask73_52_1403" style="mask-type:luminance" maskUnits="userSpaceOnUse" x="0" y="0" width="542" height="542">
<path d="M542 0H0V542H542V0Z" fill="white"/>
</mask>
<g mask="url(#mask73_52_1403)">
<path d="M122.438 198.951C122.302 196.259 122.45 192.202 124.105 191.617C125.927 190.975 136.695 191.831 142.092 196.719C140.067 200.548 140.25 204.592 140.25 204.592L122.438 198.951Z" fill="#263238"/>
</g>
<mask id="mask74_52_1403" style="mask-type:luminance" maskUnits="userSpaceOnUse" x="0" y="0" width="542" height="542">
<path d="M542 0H0V542H542V0Z" fill="white"/>
</mask>
<g mask="url(#mask74_52_1403)">
<path d="M89.5062 440.722C88.574 440.722 87.2103 440.185 86.703 439.922C86.6455 439.891 86.6097 439.829 86.613 439.762C86.6162 439.696 86.6585 439.638 86.7203 439.614C86.8125 439.578 88.9815 438.745 89.9496 439.22C90.1783 439.333 90.3279 439.508 90.3962 439.74C90.5241 440.175 90.3756 440.41 90.2292 440.53C90.0623 440.668 89.8065 440.722 89.5062 440.722ZM87.2222 439.795C88.2173 440.231 89.6352 440.581 90.0146 440.269C90.0514 440.239 90.1631 440.147 90.072 439.835C90.0309 439.696 89.942 439.593 89.8 439.525C89.2211 439.24 87.9669 439.549 87.2222 439.795Z" fill="#407BFF"/>
</g>
<mask id="mask75_52_1403" style="mask-type:luminance" maskUnits="userSpaceOnUse" x="0" y="0" width="542" height="542">
<path d="M542 0H0V542H542V0Z" fill="white"/>
</mask>
<g mask="url(#mask75_52_1403)">
<path d="M86.7828 439.942C86.7384 439.942 86.6939 439.923 86.6625 439.889C86.6191 439.846 86.6039 439.782 86.6213 439.725C86.6451 439.641 87.2348 437.668 88.1801 437.202C88.4283 437.08 88.6809 437.065 88.9302 437.162C89.3194 437.313 89.3638 437.589 89.3551 437.74C89.3107 438.554 87.611 439.727 86.8262 439.935C86.811 439.939 86.7969 439.942 86.7828 439.942ZM88.6007 437.436C88.5107 437.436 88.4207 437.459 88.3286 437.504C87.7649 437.784 87.2836 438.844 87.0505 439.495C87.8657 439.134 88.9898 438.205 89.0169 437.721C89.0191 437.673 89.0256 437.561 88.8077 437.476C88.7383 437.45 88.669 437.436 88.6007 437.436Z" fill="#407BFF"/>
</g>
<mask id="mask76_52_1403" style="mask-type:luminance" maskUnits="userSpaceOnUse" x="0" y="0" width="542" height="542">
<path d="M542 0H0V542H542V0Z" fill="white"/>
</mask>
<g mask="url(#mask76_52_1403)">
<path d="M143.994 443.875C143.142 443.875 142.26 443.766 141.802 443.676C141.733 443.662 141.681 443.607 141.669 443.538C141.656 443.469 141.688 443.399 141.749 443.363C142.107 443.153 145.274 441.341 146.04 442.595C146.254 442.946 146.178 443.194 146.076 443.341C145.792 443.748 144.911 443.875 143.994 443.875ZM142.343 443.423C143.686 443.613 145.491 443.588 145.8 443.147C145.827 443.109 145.896 443.008 145.753 442.771C145.319 442.059 143.395 442.871 142.343 443.423Z" fill="#407BFF"/>
</g>
<mask id="mask77_52_1403" style="mask-type:luminance" maskUnits="userSpaceOnUse" x="0" y="0" width="542" height="542">
<path d="M542 0H0V542H542V0Z" fill="white"/>
</mask>
<g mask="url(#mask77_52_1403)">
<path d="M141.836 443.679C141.802 443.679 141.77 443.668 141.741 443.65C141.692 443.616 141.664 443.56 141.668 443.5C141.672 443.419 141.789 441.499 142.668 440.749C142.937 440.519 143.249 440.425 143.601 440.455C144.075 440.503 144.213 440.747 144.247 440.941C144.383 441.768 142.761 443.274 141.906 443.664C141.884 443.674 141.861 443.679 141.836 443.679ZM143.465 440.786C143.251 440.786 143.061 440.857 142.887 441.006C142.312 441.498 142.103 442.655 142.035 443.211C142.894 442.689 143.995 441.495 143.912 440.995C143.905 440.953 143.884 440.823 143.567 440.791C143.532 440.788 143.498 440.786 143.465 440.786Z" fill="#407BFF"/>
</g>
<mask id="mask78_52_1403" style="mask-type:luminance" maskUnits="userSpaceOnUse" x="0" y="0" width="542" height="542">
<path d="M542 0H0V542H542V0Z" fill="white"/>
</mask>
<g mask="url(#mask78_52_1403)">
<path d="M133.988 443.51H141.125L141.198 426.983H134.061L133.988 443.51Z" fill="#FF8B7B"/>
</g>
<mask id="mask79_52_1403" style="mask-type:luminance" maskUnits="userSpaceOnUse" x="0" y="0" width="542" height="542">
<path d="M542 0H0V542H542V0Z" fill="white"/>
</mask>
<g mask="url(#mask79_52_1403)">
<path d="M78.7124 438.396L85.3963 439.941L91.0082 423.593L84.3254 422.048L78.7124 438.396Z" fill="#FF8B7B"/>
</g>
<mask id="mask80_52_1403" style="mask-type:luminance" maskUnits="userSpaceOnUse" x="0" y="0" width="542" height="542">
<path d="M542 0H0V542H542V0Z" fill="white"/>
</mask>
<g mask="url(#mask80_52_1403)">
<path d="M86.4371 438.833L78.6605 436.879C78.3775 436.809 78.0914 436.946 77.971 437.209L75.2957 443.077C75.0182 443.687 75.3922 444.422 76.048 444.576C78.7732 445.21 80.1249 445.381 83.545 446.24C85.649 446.767 89.9373 448.077 92.8424 448.806C95.6836 449.52 96.7372 446.731 95.6034 446.169C90.5183 443.652 88.8511 441.523 87.4701 439.545C87.2208 439.188 86.8512 438.938 86.4371 438.833Z" fill="#263238"/>
</g>
<mask id="mask81_52_1403" style="mask-type:luminance" maskUnits="userSpaceOnUse" x="0" y="0" width="542" height="542">
<path d="M542 0H0V542H542V0Z" fill="white"/>
</mask>
<g mask="url(#mask81_52_1403)">
<path d="M141.046 442.683H133.252C132.96 442.683 132.715 442.886 132.663 443.171L131.499 449.514C131.378 450.171 131.901 450.796 132.574 450.784C135.384 450.736 139.44 450.572 142.973 450.572C147.105 450.572 147.186 450.798 152.031 450.798C154.961 450.798 155.659 447.835 154.423 447.568C148.793 446.346 147.725 446.216 142.787 443.241C142.249 442.916 141.662 442.683 141.046 442.683Z" fill="#263238"/>
</g>
<mask id="mask82_52_1403" style="mask-type:luminance" maskUnits="userSpaceOnUse" x="0" y="0" width="542" height="542">
<path d="M542 0H0V542H542V0Z" fill="white"/>
</mask>
<g mask="url(#mask82_52_1403)">
<path d="M117.482 194.795C110.699 195.337 101.126 212.351 101.126 212.351L113.414 223.486C113.414 223.486 119.223 217.151 123.832 209.782C128.661 202.062 124.417 194.24 117.482 194.795Z" fill="#407BFF"/>
</g>
<mask id="mask83_52_1403" style="mask-type:luminance" maskUnits="userSpaceOnUse" x="0" y="0" width="542" height="542">
<path d="M542 0H0V542H542V0Z" fill="white"/>
</mask>
<g mask="url(#mask83_52_1403)">
<g opacity="0.6">
<mask id="mask84_52_1403" style="mask-type:luminance" maskUnits="userSpaceOnUse" x="101" y="194" width="25" height="30">
<path d="M125.902 194.767H101.128V223.486H125.902V194.767Z" fill="white"/>
</mask>
<g mask="url(#mask84_52_1403)">
<path d="M117.481 194.795C110.699 195.337 101.126 212.352 101.126 212.352L113.413 223.486C113.413 223.486 119.222 217.152 123.831 209.782C128.661 202.062 124.417 194.24 117.481 194.795Z" fill="white" fill-opacity="0.52"/>
</g>
</g>
</g>
<mask id="mask85_52_1403" style="mask-type:luminance" maskUnits="userSpaceOnUse" x="0" y="0" width="542" height="542">
<path d="M542 0H0V542H542V0Z" fill="white"/>
</mask>
<g mask="url(#mask85_52_1403)">
<g opacity="0.2">
<mask id="mask86_52_1403" style="mask-type:luminance" maskUnits="userSpaceOnUse" x="112" y="207" width="9" height="17">
<path d="M120.958 207.068H112.833V223.486H120.958V207.068Z" fill="white"/>
</mask>
<g mask="url(#mask86_52_1403)">
<path d="M120.956 207.066L112.832 222.956L113.409 223.484C113.409 223.484 116.547 220.051 120.054 215.309L120.956 207.066Z" fill="black"/>
</g>
</g>
</g>
<mask id="mask87_52_1403" style="mask-type:luminance" maskUnits="userSpaceOnUse" x="0" y="0" width="542" height="542">
<path d="M542 0H0V542H542V0Z" fill="white"/>
</mask>
<g mask="url(#mask87_52_1403)">
<path d="M151.485 232.953C150.262 240.825 148.329 250.555 145.348 262.546L107.585 256.934C107.933 251.52 113.71 227.344 112.574 201.409C112.413 197.759 115.36 194.72 119.012 194.804C120.873 194.847 122.931 194.944 124.946 195.146C129.796 195.63 136.799 196.514 140.994 197.53C146.53 198.874 151.637 201.114 151.637 201.114C151.637 201.114 154.347 205.093 152.887 221.64C152.599 224.907 152.15 228.652 151.485 232.953Z" fill="#407BFF"/>
</g>
<mask id="mask88_52_1403" style="mask-type:luminance" maskUnits="userSpaceOnUse" x="0" y="0" width="542" height="542">
<path d="M542 0H0V542H542V0Z" fill="white"/>
</mask>
<g mask="url(#mask88_52_1403)">
<g opacity="0.6">
<mask id="mask89_52_1403" style="mask-type:luminance" maskUnits="userSpaceOnUse" x="107" y="194" width="47" height="69">
<path d="M153.319 194.802H107.585V262.546H153.319V194.802Z" fill="white"/>
</mask>
<g mask="url(#mask89_52_1403)">
<path d="M151.485 232.953C150.262 240.825 148.329 250.555 145.348 262.546L107.585 256.934C107.933 251.521 113.71 227.344 112.574 201.41C112.413 197.76 115.36 194.72 119.012 194.805C120.873 194.847 122.931 194.945 124.946 195.146C129.796 195.631 136.799 196.514 140.994 197.53C146.53 198.874 151.637 201.115 151.637 201.115C151.637 201.115 154.347 205.093 152.887 221.64C152.599 224.908 152.15 228.653 151.485 232.953Z" fill="white" fill-opacity="0.52"/>
</g>
</g>
</g>
<mask id="mask90_52_1403" style="mask-type:luminance" maskUnits="userSpaceOnUse" x="0" y="0" width="542" height="542">
<path d="M542 0H0V542H542V0Z" fill="white"/>
</mask>
<g mask="url(#mask90_52_1403)">
<g opacity="0.2">
<mask id="mask91_52_1403" style="mask-type:luminance" maskUnits="userSpaceOnUse" x="146" y="217" width="7" height="16">
<path d="M152.888 217.416H146.521V232.953H152.888V217.416Z" fill="white"/>
</mask>
<g mask="url(#mask91_52_1403)">
<path d="M151.486 232.953C148.419 231.015 145.548 222.094 146.841 217.416L152.889 221.64C152.6 224.907 152.151 228.652 151.486 232.953Z" fill="black"/>
</g>
</g>
</g>
<mask id="mask92_52_1403" style="mask-type:luminance" maskUnits="userSpaceOnUse" x="0" y="0" width="542" height="542">
<path d="M542 0H0V542H542V0Z" fill="white"/>
</mask>
<g mask="url(#mask92_52_1403)">
<path d="M143.004 205.937C141.053 212.447 152.864 231.6 152.864 231.6L166.992 224.222C166.992 224.222 163.784 214.576 158.704 207.147C153.031 198.851 145.2 198.604 143.004 205.937Z" fill="#407BFF"/>
</g>
<mask id="mask93_52_1403" style="mask-type:luminance" maskUnits="userSpaceOnUse" x="0" y="0" width="542" height="542">
<path d="M542 0H0V542H542V0Z" fill="white"/>
</mask>
<g mask="url(#mask93_52_1403)">
<g opacity="0.6">
<mask id="mask94_52_1403" style="mask-type:luminance" maskUnits="userSpaceOnUse" x="142" y="200" width="25" height="32">
<path d="M166.993 200.669H142.787V231.599H166.993V200.669Z" fill="white"/>
</mask>
<g mask="url(#mask94_52_1403)">
<path d="M143.003 205.937C141.053 212.446 152.863 231.6 152.863 231.6L166.992 224.222C166.992 224.222 163.783 214.575 158.704 207.147C153.03 198.851 145.199 198.604 143.003 205.937Z" fill="white" fill-opacity="0.52"/>
</g>
</g>
</g>
<mask id="mask95_52_1403" style="mask-type:luminance" maskUnits="userSpaceOnUse" x="0" y="0" width="542" height="542">
<path d="M542 0H0V542H542V0Z" fill="white"/>
</mask>
<g mask="url(#mask95_52_1403)">
<g opacity="0.2">
<mask id="mask96_52_1403" style="mask-type:luminance" maskUnits="userSpaceOnUse" x="134" y="426" width="8" height="10">
<path d="M141.197 426.987H134.021V435.505H141.197V426.987Z" fill="white"/>
</mask>
<g mask="url(#mask96_52_1403)">
<path d="M141.195 426.987L141.16 435.506H134.019L134.055 426.987H141.195Z" fill="black"/>
</g>
</g>
</g>
<mask id="mask97_52_1403" style="mask-type:luminance" maskUnits="userSpaceOnUse" x="0" y="0" width="542" height="542">
<path d="M542 0H0V542H542V0Z" fill="white"/>
</mask>
<g mask="url(#mask97_52_1403)">
<g opacity="0.2">
<mask id="mask98_52_1403" style="mask-type:luminance" maskUnits="userSpaceOnUse" x="81" y="422" width="11" height="11">
<path d="M91.0079 422.051H81.4253V432.023H91.0079V422.051Z" fill="white"/>
</mask>
<g mask="url(#mask98_52_1403)">
<path d="M84.3204 422.053L91.0076 423.598L88.11 432.024L81.4229 430.478L84.3204 422.053Z" fill="black"/>
</g>
</g>
</g>
<mask id="mask99_52_1403" style="mask-type:luminance" maskUnits="userSpaceOnUse" x="0" y="0" width="542" height="542">
<path d="M542 0H0V542H542V0Z" fill="white"/>
</mask>
<g mask="url(#mask99_52_1403)">
<path d="M131.868 169.577C129.801 176.374 128.252 180.234 130.281 185.012C133.333 192.197 142.518 192.517 146.538 186.548C150.157 181.175 152.929 170.961 147.524 165.661C142.2 160.437 133.936 162.779 131.868 169.577Z" fill="#FF8B7B"/>
</g>
<mask id="mask100_52_1403" style="mask-type:luminance" maskUnits="userSpaceOnUse" x="0" y="0" width="542" height="542">
<path d="M542 0H0V542H542V0Z" fill="white"/>
</mask>
<g mask="url(#mask100_52_1403)">
<path d="M142.787 177.053C141.974 180.532 139.858 186.809 134.651 187.532C131.754 187.934 126.918 187.08 126.467 184.732C126.015 182.383 127.822 182.709 127.37 180.784C126.918 178.86 124.54 172.164 127.235 167.388C123.486 167.704 126.061 162.148 132.79 160.839C130.712 160.026 131.706 154.369 142.092 157.045C146.952 158.296 150.555 160.207 150.993 162.812C155.41 164.678 156.58 169.375 153.838 171.091C151.181 172.754 147.135 170.866 147.135 170.866C147.135 170.866 149.005 180.847 142.787 177.053Z" fill="#263238"/>
</g>
<mask id="mask101_52_1403" style="mask-type:luminance" maskUnits="userSpaceOnUse" x="0" y="0" width="542" height="542">
<path d="M542 0H0V542H542V0Z" fill="white"/>
</mask>
<g mask="url(#mask101_52_1403)">
<path d="M139.961 176.513C139.831 178.165 140.442 179.778 141.298 180.869C142.587 182.508 143.02 182.529 143.556 180.696C144.037 179.048 145.226 175.362 143.503 174.379C141.803 173.41 140.111 174.625 139.961 176.513Z" fill="#FF8B7B"/>
</g>
<mask id="mask102_52_1403" style="mask-type:luminance" maskUnits="userSpaceOnUse" x="0" y="0" width="542" height="542">
<path d="M542 0H0V542H542V0Z" fill="white"/>
</mask>
<g mask="url(#mask102_52_1403)">
<path d="M131.952 260.555C131.952 260.555 126.093 316.516 122.436 336.948C118.43 359.324 91.778 431.299 91.778 431.299L79.1006 428.114C85.6273 403.213 95.237 356.751 101.104 338.977C105.526 311.95 101.127 277.985 107.589 256.934L131.952 260.555Z" fill="#263238"/>
</g>
<mask id="mask103_52_1403" style="mask-type:luminance" maskUnits="userSpaceOnUse" x="0" y="0" width="542" height="542">
<path d="M542 0H0V542H542V0Z" fill="white"/>
</mask>
<g mask="url(#mask103_52_1403)">
<path d="M94.7944 427.091C94.8486 427.105 92.4508 431.677 92.4508 431.677L78.1875 428.094L79.3723 423.774L94.7944 427.091Z" fill="#407BFF"/>
</g>
<mask id="mask104_52_1403" style="mask-type:luminance" maskUnits="userSpaceOnUse" x="0" y="0" width="542" height="542">
<path d="M542 0H0V542H542V0Z" fill="white"/>
</mask>
<g mask="url(#mask104_52_1403)">
<g opacity="0.2">
<mask id="mask105_52_1403" style="mask-type:luminance" maskUnits="userSpaceOnUse" x="121" y="282" width="9" height="53">
<path d="M129.566 282.303H121.529V334.176H129.566V282.303Z" fill="white"/>
</mask>
<g mask="url(#mask105_52_1403)">
<path d="M128.331 282.377C128.768 282.29 129.176 282.281 129.564 282.349C127.68 299.066 125.018 321.401 122.91 334.176C121.16 315.61 119.53 284.116 128.331 282.377Z" fill="black"/>
</g>
</g>
</g>
<mask id="mask106_52_1403" style="mask-type:luminance" maskUnits="userSpaceOnUse" x="0" y="0" width="542" height="542">
<path d="M542 0H0V542H542V0Z" fill="white"/>
</mask>
<g mask="url(#mask106_52_1403)">
<path d="M145.346 262.545C145.346 262.545 148.306 322.358 148.734 344.117C149.181 366.75 143.755 433.856 143.755 433.856H131.666C131.666 433.856 127.099 371.631 129.565 341.279C126.648 318.154 120.526 258.858 120.526 258.858L145.346 262.545Z" fill="#263238"/>
</g>
<mask id="mask107_52_1403" style="mask-type:luminance" maskUnits="userSpaceOnUse" x="0" y="0" width="542" height="542">
<path d="M542 0H0V542H542V0Z" fill="white"/>
</mask>
<g mask="url(#mask107_52_1403)">
<path d="M188.995 251.815C187.273 251.662 184.95 251.904 183.208 252.636L182.331 254.086C181.583 255.32 182.187 256.93 183.562 257.369L187.8 258.72L189.869 259.35C190.766 259.623 191.739 259.293 192.285 258.531L193.171 257.294C193.818 256.39 193.683 255.141 192.857 254.396L190.946 252.673C190.403 252.183 189.723 251.879 188.995 251.815Z" fill="#FF8B7B"/>
</g>
<path d="M145.896 429.041C145.951 429.041 145.407 434.06 145.407 434.06H130.701L130.13 429.58L145.896 429.041Z" fill="#407BFF"/>
</svg>
